<svg xmlns="http://www.w3.org/2000/svg" id="Layer_1" data-name="Layer 1" viewBox="0 0 270.43 73.1"><defs><linearGradient id="linear-gradient" x1="32.57" x2="32.57" y1="62.15" y2="-19.22" gradientTransform="matrix(1 0 0 -1 0 66.26)" gradientUnits="userSpaceOnUse"><stop offset="0" stop-color="#51558e"/><stop offset="1" stop-color="#2d2e70"/></linearGradient><style>.cls-3{stroke-width:0}.cls-4{isolation:isolate}.cls-3{fill:#2d2e70}</style></defs><g class="cls-4"><g class="cls-4"><path d="M97.48 1.93h5.77l18.94 45.87h-6.46L110.6 35H89.95l-5.2 12.8H78.6L97.48 1.93Zm-5.45 27.81h16.47l-3.74-9.5c-1.46-3.67-2.98-7.6-4.37-11.34h-.13c-1.39 3.74-2.92 7.6-4.5 11.53l-3.74 9.31ZM135.81 1.93h6.02v19.32h24.96V1.93h6.02V47.8h-6.02V26.7h-24.96v21.1h-6.02V1.93ZM212.59 1.23c4.81 0 9.31 1.2 12.92 3.23v6.59c-3.42-2.53-8.11-4.24-12.99-4.24-10.45 0-17.8 7.86-17.8 18.06s7.35 18.06 18.31 18.06c5.07 0 9.57-1.71 13.18-4.62v6.65c-3.67 2.34-8.68 3.55-13.49 3.55-13.94 0-24.01-10.07-24.01-23.5s9.5-23.78 23.88-23.78ZM241.29 38.3c4.31 3.29 9.82 4.69 13.88 4.69 5.45 0 9.31-2.47 9.31-7.48 0-5.89-5.39-6.91-11.4-8.62-6.46-1.84-12.73-4.5-12.73-12.86s5.89-12.8 14.83-12.8c4.31 0 9.5 1.08 13.18 3.42v6.34c-4.18-2.91-9.38-4.24-13.3-4.24-5.13 0-8.74 2.22-8.74 6.91 0 5.7 5.32 6.65 10.9 8.24 6.65 1.9 13.24 4.56 13.24 13.3s-6.15 13.3-15.33 13.3c-4.43 0-9.82-1.2-13.81-3.61V38.3Z" class="cls-3"/></g></g><g class="cls-4"><path d="M82.63 58.65h1.21l3.96 9.41h-1.35l-1.07-2.63h-4.32l-1.09 2.63h-1.29l3.95-9.41Zm-1.14 5.71h3.45l-.78-1.95c-.31-.75-.62-1.56-.92-2.33h-.03c-.29.77-.61 1.56-.94 2.37l-.78 1.91Z" class="cls-3"/></g><g class="cls-4"><path d="M93.59 67.76c-.56.3-1.29.44-1.95.44-2.07 0-3.54-1.4-3.54-3.3s1.59-3.38 3.62-3.38c.68 0 1.3.17 1.76.4v1.21c-.54-.34-1.18-.55-1.82-.55-1.42 0-2.36 1.03-2.36 2.31s.99 2.24 2.4 2.24c.74 0 1.39-.25 1.88-.62v1.25ZM95.3 67.75c-.42-.31-.69-.79-.69-1.42 0-.71.34-1.23.86-1.56.49-.31 1.15-.43 1.83-.43.5 0 .97.06 1.39.17v-.53c0-.47-.12-.82-.37-1.05-.25-.22-.65-.35-1.21-.35-.82 0-1.51.29-2 .64v-1.14c.5-.3 1.21-.55 2.17-.55.8 0 1.49.17 1.95.58.38.34.65.88.65 1.68v2.72c0 .39.15.68.5.68.13 0 .28-.04.38-.09v.97c-.16.07-.38.12-.64.12-.52 0-1.01-.22-1.26-.68h-.03c-.37.34-1.13.7-2 .7-.53 0-1.11-.13-1.55-.46Zm3.39-1.14v-1.2c-.36-.1-.86-.17-1.27-.17-.81 0-1.6.23-1.6.99 0 .62.54.94 1.25.94.62 0 1.23-.25 1.63-.56ZM104.87 61.52c.65 0 1.14.16 1.56.34h.03v-3.73h1.19v9.93h-1.19v-.39h-.03c-.44.29-1.05.53-1.83.53-1.76 0-3.2-1.26-3.2-3.24s1.41-3.45 3.46-3.45Zm-.11 5.64c.65 0 1.23-.23 1.7-.55v-3.65c-.44-.22-1.02-.4-1.6-.4-1.38 0-2.24 1.03-2.24 2.34s.81 2.26 2.15 2.26ZM110.23 65.2c.17 1.26 1.13 1.95 2.41 1.95.9 0 1.66-.35 2.25-.79v1.25c-.58.36-1.49.6-2.33.6-2.02 0-3.53-1.33-3.53-3.34s1.5-3.34 3.25-3.34c1.59 0 2.97 1.09 2.97 3.09 0 .2-.01.43-.04.58h-4.99Zm.03-.92h3.85c-.11-1.27-1.06-1.7-1.84-1.7-.86 0-1.79.52-2 1.7Z" class="cls-3"/></g><g class="cls-4"><path d="M125.93 64.28c0-.61-.09-1-.33-1.27-.25-.29-.65-.39-1-.39-.76 0-1.54.48-1.99 1 .01.14.01.3.01.46v3.99h-1.19v-3.78c0-.69-.08-1-.3-1.26-.27-.3-.62-.4-1-.4-.77 0-1.54.47-1.99 1v4.45h-1.19v-6.4h1.19v.78h.03c.54-.52 1.31-.92 2.21-.92.81 0 1.6.34 2 1.1.78-.73 1.58-1.1 2.48-1.1.7 0 1.31.23 1.71.68.4.43.54 1 .54 1.87v3.99h-1.19V64.3Z" class="cls-3"/></g><g class="cls-4"><path d="m128.82 70.92 1.76-3.55-2.72-5.71h1.33l1.14 2.42c.31.65.62 1.34.89 1.92h.03c.29-.64.58-1.27.89-1.92l1.14-2.42h1.26l-4.42 9.26h-1.3Z" class="cls-3"/></g><g class="cls-4"><path d="M139.06 62.72h-1.03v-1.05h1.03v-1.22c0-.83.12-1.48.58-1.92.41-.39.97-.53 1.52-.53.37 0 .76.06.98.13v1.05c-.25-.06-.68-.12-.93-.12-.82 0-.97.55-.97 1.22v1.39h1.67v1.05h-1.67v5.34h-1.19v-5.34Z" class="cls-3"/></g><g class="cls-4"><path d="M146.02 61.52c1.98 0 3.45 1.46 3.45 3.34s-1.47 3.34-3.45 3.34-3.45-1.46-3.45-3.34 1.47-3.34 3.45-3.34Zm0 5.62c1.3 0 2.25-.99 2.25-2.28s-.96-2.28-2.25-2.28-2.25.99-2.25 2.28.96 2.28 2.25 2.28ZM150.85 61.66h1.19v.94h.03c.45-.61 1.17-.99 1.94-.99.13 0 .28.01.42.05v1.16c-.16-.04-.32-.05-.46-.05-.89 0-1.51.44-1.92 1.13v4.16h-1.19v-6.4ZM158.42 58.65h1.26v3.96h5.22v-3.96h1.26v9.41h-1.26v-4.33h-5.22v4.33h-1.26v-9.41ZM168.77 65.2c.17 1.26 1.13 1.95 2.41 1.95.9 0 1.66-.35 2.25-.79v1.25c-.58.36-1.49.6-2.33.6-2.02 0-3.53-1.33-3.53-3.34s1.5-3.34 3.25-3.34c1.59 0 2.97 1.09 2.97 3.09 0 .2-.01.43-.04.58h-4.99Zm.03-.92h3.85c-.11-1.27-1.06-1.7-1.84-1.7-.86 0-1.79.52-2 1.7ZM175.48 67.75c-.42-.31-.69-.79-.69-1.42 0-.71.34-1.23.86-1.56.49-.31 1.15-.43 1.83-.43.5 0 .97.06 1.39.17v-.53c0-.47-.12-.82-.37-1.05-.25-.22-.65-.35-1.21-.35-.82 0-1.51.29-2 .64v-1.14c.5-.3 1.21-.55 2.17-.55.8 0 1.49.17 1.95.58.38.34.65.88.65 1.68v2.72c0 .39.15.68.5.68.13 0 .28-.04.38-.09v.97c-.16.07-.38.12-.64.12-.52 0-1.01-.22-1.26-.68h-.03c-.37.34-1.13.7-2 .7-.53 0-1.11-.13-1.55-.46Zm3.39-1.14v-1.2c-.36-.1-.86-.17-1.27-.17-.81 0-1.6.23-1.6.99 0 .62.54.94 1.25.94.62 0 1.23-.25 1.63-.56ZM182.01 58.13h1.19v9.93h-1.19v-9.93ZM185.54 65.84v-3.12h-1.21v-1.05h1.21v-1.74l1.19-.19v1.94h1.96v1.05h-1.96v2.9c0 .79.12 1.52.98 1.52.34 0 .73-.12.98-.27v1.11c-.26.13-.73.23-1.18.23-.48 0-1.06-.12-1.49-.6-.32-.35-.49-.87-.49-1.77ZM189.93 58.13h1.19v4.34h.03c.57-.55 1.37-.95 2.28-.95.72 0 1.33.25 1.74.7.36.4.54.9.54 1.88v3.95h-1.19v-3.73c0-.71-.09-1.05-.32-1.3-.25-.29-.58-.42-1-.42-.78 0-1.59.47-2.08 1.07v4.38h-1.19v-9.93ZM202.55 67.76c-.56.3-1.29.44-1.95.44-2.07 0-3.54-1.4-3.54-3.3s1.59-3.38 3.62-3.38c.68 0 1.3.17 1.76.4v1.21c-.54-.34-1.18-.55-1.82-.55-1.42 0-2.36 1.03-2.36 2.31s.99 2.24 2.4 2.24c.74 0 1.39-.25 1.88-.62v1.25ZM204.26 67.75c-.42-.31-.69-.79-.69-1.42 0-.71.34-1.23.86-1.56.49-.31 1.15-.43 1.83-.43.5 0 .97.06 1.39.17v-.53c0-.47-.12-.82-.37-1.05-.25-.22-.65-.35-1.21-.35-.82 0-1.51.29-2 .64v-1.14c.5-.3 1.21-.55 2.17-.55.8 0 1.49.17 1.95.58.38.34.65.88.65 1.68v2.72c0 .39.15.68.5.68.13 0 .28-.04.38-.09v.97c-.16.07-.38.12-.64.12-.52 0-1.01-.22-1.26-.68h-.03c-.37.34-1.13.7-2 .7-.53 0-1.11-.13-1.55-.46Zm3.39-1.14v-1.2c-.36-.1-.86-.17-1.27-.17-.81 0-1.6.23-1.6.99 0 .62.54.94 1.25.94.62 0 1.23-.25 1.63-.56Z" class="cls-3"/></g><g class="cls-4"><path d="M211.52 61.66h1.19v.94h.03c.45-.61 1.17-.99 1.94-.99.13 0 .28.01.42.05v1.16c-.16-.04-.32-.05-.46-.05-.89 0-1.51.44-1.92 1.13v4.16h-1.19v-6.4Z" class="cls-3"/></g><g class="cls-4"><path d="M216.77 65.2c.17 1.26 1.13 1.95 2.41 1.95.9 0 1.66-.35 2.25-.79v1.25c-.58.36-1.49.6-2.33.6-2.02 0-3.53-1.33-3.53-3.34s1.5-3.34 3.25-3.34c1.59 0 2.97 1.09 2.97 3.09 0 .2-.01.43-.04.58h-4.99Zm.03-.92h3.85c-.11-1.27-1.06-1.7-1.84-1.7-.86 0-1.79.52-2 1.7ZM225.93 66.11c.9.68 2.06.96 2.9.96 1.14 0 1.95-.51 1.95-1.53 0-1.21-1.13-1.42-2.39-1.77-1.35-.38-2.67-.92-2.67-2.64s1.23-2.63 3.1-2.63c.9 0 1.99.22 2.76.7v1.3c-.88-.6-1.96-.87-2.78-.87-1.07 0-1.83.45-1.83 1.42 0 1.17 1.11 1.36 2.28 1.69 1.39.39 2.77.94 2.77 2.73s-1.29 2.73-3.21 2.73c-.93 0-2.05-.25-2.89-.74v-1.35ZM238.39 67.76c-.56.3-1.29.44-1.95.44-2.07 0-3.54-1.4-3.54-3.3s1.59-3.38 3.62-3.38c.68 0 1.3.17 1.76.4v1.21c-.54-.34-1.18-.55-1.82-.55-1.42 0-2.36 1.03-2.36 2.31s.99 2.24 2.4 2.24c.74 0 1.39-.25 1.88-.62v1.25ZM240.44 58.65a.82.82 0 1 1 0 1.64c-.46 0-.84-.36-.84-.82s.37-.82.84-.82Zm-.6 3.02h1.19v6.4h-1.19v-6.4ZM243.61 65.2c.17 1.26 1.13 1.95 2.41 1.95.9 0 1.66-.35 2.25-.79v1.25c-.58.36-1.49.6-2.33.6-2.02 0-3.53-1.33-3.53-3.34s1.5-3.34 3.25-3.34c1.59 0 2.97 1.09 2.97 3.09 0 .2-.01.43-.04.58h-4.99Zm.03-.92h3.85c-.11-1.27-1.06-1.7-1.84-1.7-.86 0-1.79.52-2 1.7ZM250.07 61.66h1.19v.81h.03c.57-.55 1.37-.95 2.28-.95.72 0 1.33.25 1.74.7.36.4.54.9.54 1.88v3.95h-1.19v-3.73c0-.66-.09-1.05-.31-1.3-.26-.31-.69-.42-1.05-.42-.74 0-1.58.46-2.04 1.07v4.38h-1.19v-6.4Z" class="cls-3"/></g><g class="cls-4"><path d="M263.15 67.76c-.56.3-1.29.44-1.95.44-2.07 0-3.54-1.4-3.54-3.3s1.59-3.38 3.62-3.38c.68 0 1.3.17 1.76.4v1.21c-.54-.34-1.18-.55-1.82-.55-1.42 0-2.36 1.03-2.36 2.31s.99 2.24 2.4 2.24c.74 0 1.39-.25 1.88-.62v1.25Z" class="cls-3"/></g><g class="cls-4"><path d="M265.4 65.2c.17 1.26 1.13 1.95 2.41 1.95.9 0 1.66-.35 2.25-.79v1.25c-.58.36-1.49.6-2.33.6-2.02 0-3.53-1.33-3.53-3.34s1.5-3.34 3.25-3.34c1.59 0 2.97 1.09 2.97 3.09 0 .2-.01.43-.04.58h-4.99Zm.03-.92h3.85c-.11-1.27-1.06-1.7-1.84-1.7-.86 0-1.79.52-2 1.7Z" class="cls-3"/></g><path d="m32.07 73.05-.39-.16C17.96 67.12 8.56 58.96 3.76 48.64 2 48.21.75 46.6.75 44.76c0-2.23 1.81-4.04 4.04-4.04a4.042 4.042 0 0 1 2.94 6.81c4.38 8.9 12.76 16.09 24.91 21.32 17.5-7.55 27.03-19.01 28.3-34.06l-11.18.06-5.87 16.36-5.42-19.16-6.34 15.76-5-22.79-5.81 20.24-6.44-8.97-14.67.13-.03-1.68C-1.12 17.35 8 2.17 8.39 1.53L9.26.11l1.62.58c3.58 1.39 7.22 2.1 10.8 2.1 6.04 0 9.93-2.03 10.09-2.12l.95-.51 1.01.52c.16.09 3.98 2.11 9.99 2.11 3.57 0 7.19-.71 10.77-2.1l1.55-.6.94 1.45c.18.3 4.46 7.39 6.81 17.35 1.54.57 2.56 2.05 2.56 3.73 0 2.23-1.81 4.04-4.04 4.04s-4.04-1.81-4.04-4.04c0-1.22.54-2.36 1.49-3.13-1.63-6.59-4.13-11.86-5.48-14.4-3.44 1.2-7 1.8-10.52 1.8-5.31 0-9.19-1.35-11.04-2.15-1.81.8-5.73 2.15-11.06 2.15-3.53 0-7.1-.6-10.61-1.77-2.14 4.14-7.22 15.17-6.86 27.46l12.98-.15 2.63 3.68 7.88-27.8 5.63 25.65 5.87-14.57 5.22 18.45 2.57-6.83 18.26-.04-.04 1.9c-.02.62-.05 1.24-.1 1.86-1.28 17.07-11.88 29.91-31.5 38.16l-.38.16h-1.14Z" class="cls-3"/><path d="m56.06.14.87 1.42c.2.33 4.45 7.38 6.8 17.33a3.99 3.99 0 1 1-5.43 3.72c0-1.25.57-2.36 1.47-3.09-1.63-6.7-4.19-12.05-5.47-14.47-3.91 1.31-7.47 1.77-10.56 1.77-5.37 0-9.29-1.39-11.01-2.14-1.73.75-5.69 2.14-11.09 2.14-3.1 0-6.68-.46-10.59-1.77-2.03 3.85-7.3 15.08-6.94 27.52l13.03-.1 2.58 3.66 7.92-27.61 5.62 25.61 5.87-14.59L44.35 38l2.63-6.99h18.21l-.1 1.84c-.02.62-.05 1.24-.1 1.86-1.28 17.05-11.87 29.87-31.46 38.12l-.37.16h-1.1l-.37-.16C17.95 67.05 8.59 58.91 3.8 48.61c-1.72-.44-3-2-3-3.86 0-2.2 1.79-3.99 3.99-3.99s3.99 1.79 3.99 3.99c0 1.06-.42 2.02-1.09 2.73 4.37 8.96 12.73 16.16 24.93 21.4C50.18 61.32 59.73 49.85 61 34.77H49.77L43.9 51l-5.42-19.16-6.34 15.74-5.01-22.83-5.87 20.44-6.34-8.98-14.72.11.02-1.62C-1.07 17.35 8.04 2.2 8.43 1.56L9.3.14l1.55.6c4.05 1.57 7.73 2.1 10.82 2.1 6.03 0 9.87-2 10.11-2.12l.95-.51.95.52c.23.12 4.02 2.12 10.01 2.12 3.08 0 6.74-.53 10.79-2.1l1.55-.6m.05-.13L56 .05l-1.55.6c-3.58 1.39-7.19 2.09-10.75 2.09-6 0-9.8-2.02-9.96-2.1l-.95-.52-.05-.03-.05.03-.95.51c-.16.09-4.03 2.11-10.06 2.11-3.58 0-7.2-.7-10.78-2.09L9.35.05 9.27.02 9.22.1l-.87 1.42c-.4.62-9.53 15.8-8.22 33.21l-.02 1.61v.11h.11l14.66-.11 6.31 8.94.13.19.06-.22 5.75-20.03 4.92 22.41.08.34.13-.33 6.22-15.44 5.33 18.85.09.33.12-.32 5.84-16.16H60.9c-1.3 14.96-10.81 26.36-28.26 33.88-12.08-5.21-20.43-12.36-24.79-21.27.69-.76 1.07-1.73 1.07-2.75 0-2.26-1.84-4.1-4.1-4.1s-4.1 1.84-4.1 4.1c0 1.86 1.24 3.47 3.03 3.95 4.81 10.31 14.21 18.46 27.92 24.23l.37.16h1.18l.37-.16c19.64-8.26 30.24-21.11 31.53-38.21.05-.62.08-1.24.1-1.87l.1-1.84v-.11H46.93l-.03.07-2.52 6.68-5.13-18.14-.09-.31-.12.3-5.74 14.26L27.75 8.5l-.09-.42-.12.41-7.86 27.39-2.45-3.47-.03-.05h-.06l-12.92.1C3.9 20.3 8.89 9.4 11.1 5.18c3.49 1.16 7.03 1.75 10.54 1.75 5.31 0 9.21-1.33 11.09-2.13 1.86.81 5.73 2.13 11.01 2.13 3.49 0 7.02-.59 10.51-1.75 1.35 2.56 3.8 7.76 5.4 14.3-.92.78-1.45 1.92-1.45 3.13 0 2.26 1.84 4.1 4.1 4.1s4.1-1.84 4.1-4.1c0-1.69-1.01-3.17-2.57-3.8-2.36-9.94-6.62-17.01-6.8-17.31L56.16.08 56.11 0l-.03.02Z" class="cls-3"/><path fill="url(#linear-gradient)" stroke-width="0" d="M4.33 30.76s-.54 11.29 3.43 15.72l7.05 10.66 17.71 10.93 12.2-6.5 11.29-11.2 4.61-17.16s.99-5.78-1.26-11.74c-2.26-5.96-5.78-14.45-5.78-14.45L46.8 9.01 32.17 6.75l-6.41 1.63L11.58 7.3l-5.33 15-1.9 8.49-.02-.03Z"/><path fill="#fff" stroke-width="0" d="m43.48 37.62-4.79-16.93-5.39 13.38-5.16-20.47-7.27 22.3-2.37-3.36-11.95.09c-.33-11.42 4.5-21.71 6.36-25.25 9.83 3.29 17.39.74 19.89-.34 2.49 1.08 9.98 3.63 19.8.34 1.18 2.22 3.52 7.12 5.02 13.28-.82.67-1.35 1.69-1.35 2.83 0 2.02 1.64 3.66 3.66 3.66s3.66-1.64 3.66-3.66c0-1.56-.97-2.88-2.34-3.41-2.16-9.13-6.06-15.6-6.24-15.9l-.8-1.31-1.43.55c-10.96 4.26-18.77.16-19.09-.01l-.87-.47-.87.47c-.33.18-8.24 4.28-19.21.02l-1.43-.55-.8 1.31c-.36.58-8.72 14.48-7.52 30.43l.13 1.7 13.5-.1 5.67 8.03 5.38-18.76 4.6 20.95L38.08 32l4.97 17.57 5.38-14.89h10.3c-1.16 13.84-9.92 24.36-26.04 31.29C21.5 61.16 13.84 54.56 9.82 46.33c.62-.66 1-1.54 1-2.51 0-2.02-1.64-3.66-3.66-3.66S3.5 41.8 3.5 43.82a3.65 3.65 0 0 0 2.75 3.54c4.4 9.45 12.98 16.92 25.59 22.22l.34.14h1.01l.34-.14c17.98-7.56 27.69-19.33 28.87-34.97.04-.57.07-1.14.09-1.71l.06-1.89h-16.7l-2.39 6.61h.02Z"/></svg>