<svg xmlns="http://www.w3.org/2000/svg" xmlns:xlink="http://www.w3.org/1999/xlink" zoomAndPan="magnify" preserveAspectRatio="xMidYMid meet" version="1.0" viewBox="108.38 120 158.7 131.12"><defs><g/><clipPath id="3ea119a148"><path d="M 159.140625 120 L 216 120 L 216 205 L 159.140625 205 Z M 159.140625 120 " clip-rule="nonzero"/></clipPath></defs><g fill="#000000" fill-opacity="1"><g transform="translate(105.688964, 234.312611)"><g><path d="M 18.3125 0 L 18.3125 -3.703125 L 6.824219 -3.703125 L 6.824219 -9.730469 L 16.621094 -9.730469 L 16.621094 -13.214844 L 6.824219 -13.214844 L 6.824219 -18.878906 L 18.164062 -18.878906 L 18.164062 -22.582031 L 2.691406 -22.582031 L 2.691406 0 Z M 18.3125 0 "/></g></g></g><g fill="#000000" fill-opacity="1"><g transform="translate(125.07736, 234.312611)"><g><path d="M 9.183594 0.515625 C 11.953125 0.515625 14.214844 -0.746094 15.324219 -2.871094 L 15.324219 0 L 19.144531 0 L 19.144531 -17.070312 L 15.324219 -17.070312 L 15.324219 -14.179688 C 14.230469 -16.304688 11.953125 -17.582031 9.164062 -17.582031 C 4.597656 -17.582031 1.144531 -13.515625 1.144531 -8.535156 C 1.144531 -3.519531 4.566406 0.515625 9.183594 0.515625 Z M 10.144531 -3.203125 C 7.4375 -3.203125 5.128906 -5.214844 5.128906 -8.535156 C 5.128906 -11.738281 7.390625 -13.863281 10.144531 -13.863281 C 12.933594 -13.863281 15.160156 -11.507812 15.160156 -8.535156 C 15.160156 -5.511719 12.949219 -3.203125 10.144531 -3.203125 Z M 10.144531 -3.203125 "/></g></g></g><g fill="#000000" fill-opacity="1"><g transform="translate(146.573918, 234.312611)"><g><path d="M 6.375 0 L 6.375 -7.9375 C 6.375 -11.574219 8.253906 -13.617188 11.007812 -13.617188 L 12.617188 -13.617188 L 12.617188 -17.070312 L 10.792969 -17.070312 C 8.566406 -17.070312 7.007812 -15.855469 6.210938 -13.980469 L 6.210938 -17.070312 L 2.359375 -17.070312 L 2.359375 0 Z M 6.375 0 "/></g></g></g><g fill="#000000" fill-opacity="1"><g transform="translate(159.70425, 234.312611)"><g><path d="M 6.824219 0 L 6.824219 -9.53125 L 18.214844 -9.53125 L 18.214844 0 L 22.367188 0 L 22.367188 -22.582031 L 18.214844 -22.582031 L 18.214844 -13.214844 L 6.824219 -13.214844 L 6.824219 -22.582031 L 2.691406 -22.582031 L 2.691406 0 Z M 6.824219 0 "/></g></g></g><g fill="#000000" fill-opacity="1"><g transform="translate(184.753134, 234.312611)"><g><path d="M 18.597656 -8.832031 C 18.597656 -13.53125 15.144531 -17.582031 9.996094 -17.582031 C 4.863281 -17.582031 1.144531 -13.515625 1.144531 -8.535156 C 1.144531 -3.554688 4.863281 0.515625 9.996094 0.515625 C 14.246094 0.515625 17.285156 -2.292969 18.148438 -5.363281 L 13.765625 -5.363281 C 13.183594 -3.917969 11.9375 -3.070312 9.914062 -3.070312 C 7.554688 -3.070312 5.59375 -4.683594 5.179688 -7.472656 L 18.511719 -7.472656 C 18.578125 -8.101562 18.597656 -8.402344 18.597656 -8.832031 Z M 5.347656 -10.578125 C 6.027344 -12.984375 7.953125 -14.082031 9.980469 -14.082031 C 12.335938 -14.082031 14.328125 -12.484375 14.496094 -10.578125 Z M 5.347656 -10.578125 "/></g></g></g><g fill="#000000" fill-opacity="1"><g transform="translate(204.257733, 234.312611)"><g><path d="M 9.183594 0.515625 C 11.953125 0.515625 14.214844 -0.746094 15.324219 -2.871094 L 15.324219 0 L 19.144531 0 L 19.144531 -17.070312 L 15.324219 -17.070312 L 15.324219 -14.179688 C 14.230469 -16.304688 11.953125 -17.582031 9.164062 -17.582031 C 4.597656 -17.582031 1.144531 -13.515625 1.144531 -8.535156 C 1.144531 -3.519531 4.566406 0.515625 9.183594 0.515625 Z M 10.144531 -3.203125 C 7.4375 -3.203125 5.128906 -5.214844 5.128906 -8.535156 C 5.128906 -11.738281 7.390625 -13.863281 10.144531 -13.863281 C 12.933594 -13.863281 15.160156 -11.507812 15.160156 -8.535156 C 15.160156 -5.511719 12.949219 -3.203125 10.144531 -3.203125 Z M 10.144531 -3.203125 "/></g></g></g><g fill="#000000" fill-opacity="1"><g transform="translate(225.754291, 234.312611)"><g><path d="M 6.375 0 L 6.375 -23.394531 L 2.359375 -23.394531 L 2.359375 0 Z M 6.375 0 "/></g></g></g><g fill="#000000" fill-opacity="1"><g transform="translate(234.469115, 234.312611)"><g><path d="M 12.851562 0 L 12.851562 -3.335938 L 10.210938 -3.335938 C 8.933594 -3.335938 7.738281 -3.917969 7.738281 -6.308594 L 7.738281 -13.617188 L 12.851562 -13.617188 L 12.851562 -17.070312 L 7.738281 -17.070312 L 7.738281 -22.101562 L 3.71875 -22.066406 L 3.71875 -17.070312 L 0.183594 -17.070312 L 0.183594 -13.617188 L 3.71875 -13.617188 L 3.71875 -6.492188 C 3.71875 -0.863281 6.808594 0 9.382812 0 Z M 12.851562 0 "/></g></g></g><g fill="#000000" fill-opacity="1"><g transform="translate(248.213628, 234.312611)"><g><path d="M 6.375 0 L 6.375 -8.71875 C 6.375 -11.789062 8.535156 -13.882812 10.890625 -13.882812 C 13.316406 -13.882812 14.84375 -12.503906 14.84375 -9.117188 L 14.84375 0 L 18.863281 0 L 18.863281 -9.199219 C 18.863281 -14.5625 16.585938 -17.582031 12.003906 -17.582031 C 9.382812 -17.582031 7.339844 -16.371094 6.277344 -14.511719 L 6.375 -16.421875 L 6.375 -23.378906 L 2.359375 -23.378906 L 2.359375 0 Z M 6.375 0 "/></g></g></g><g fill="#009acb" fill-opacity="1"><g transform="translate(133.98696, 251.076487)"><g><path d="M 7 0 L 5.953125 0 L 4.53125 -4.703125 L 3.078125 0 L 2.03125 0 L 0.03125 -6.03125 L 1.125 -6.03125 L 2.59375 -1.125 L 4.046875 -6.03125 L 5.046875 -6.03125 L 6.515625 -1.125 L 7.96875 -6.03125 L 9.015625 -6.03125 Z M 7 0 "/></g></g></g><g fill="#009acb" fill-opacity="1"><g transform="translate(145.081706, 251.076487)"><g><path d="M 5.109375 -5.125 L 1.8125 -5.125 L 1.8125 -3.5 L 4.765625 -3.5 L 4.765625 -2.578125 L 1.8125 -2.578125 L 1.8125 -0.921875 L 5.203125 -0.921875 L 5.203125 0 L 0.796875 0 L 0.796875 -6.03125 L 5.109375 -6.03125 Z M 5.109375 -5.125 "/></g></g></g><g fill="#009acb" fill-opacity="1"><g transform="translate(152.898064, 251.076487)"><g/></g></g><g fill="#009acb" fill-opacity="1"><g transform="translate(157.280741, 251.076487)"><g><path d="M 3.46875 -6.0625 C 3.894531 -6.0625 4.3125 -5.976562 4.71875 -5.8125 C 5.125 -5.65625 5.472656 -5.425781 5.765625 -5.125 L 5.171875 -4.390625 C 4.953125 -4.628906 4.691406 -4.816406 4.390625 -4.953125 C 4.085938 -5.085938 3.785156 -5.15625 3.484375 -5.15625 C 2.878906 -5.15625 2.367188 -4.945312 1.953125 -4.53125 C 1.535156 -4.125 1.328125 -3.625 1.328125 -3.03125 C 1.328125 -2.4375 1.535156 -1.929688 1.953125 -1.515625 C 2.367188 -1.109375 2.878906 -0.90625 3.484375 -0.90625 C 4.109375 -0.90625 4.671875 -1.144531 5.171875 -1.625 L 5.765625 -0.953125 C 5.453125 -0.640625 5.085938 -0.394531 4.671875 -0.21875 C 4.265625 -0.0390625 3.851562 0.046875 3.4375 0.046875 C 2.550781 0.046875 1.804688 -0.242188 1.203125 -0.828125 C 0.597656 -1.421875 0.296875 -2.15625 0.296875 -3.03125 C 0.296875 -3.882812 0.597656 -4.601562 1.203125 -5.1875 C 1.816406 -5.769531 2.570312 -6.0625 3.46875 -6.0625 Z M 3.46875 -6.0625 "/></g></g></g><g fill="#009acb" fill-opacity="1"><g transform="translate(165.450821, 251.076487)"><g><path d="M 1.21875 -5.1875 C 1.832031 -5.769531 2.585938 -6.0625 3.484375 -6.0625 C 4.390625 -6.0625 5.148438 -5.769531 5.765625 -5.1875 C 6.378906 -4.601562 6.6875 -3.878906 6.6875 -3.015625 C 6.6875 -2.148438 6.378906 -1.421875 5.765625 -0.828125 C 5.148438 -0.242188 4.390625 0.046875 3.484375 0.046875 C 2.585938 0.046875 1.832031 -0.242188 1.21875 -0.828125 C 0.601562 -1.421875 0.296875 -2.148438 0.296875 -3.015625 C 0.296875 -3.878906 0.601562 -4.601562 1.21875 -5.1875 Z M 3.5 -5.15625 C 2.90625 -5.15625 2.394531 -4.945312 1.96875 -4.53125 C 1.539062 -4.125 1.328125 -3.617188 1.328125 -3.015625 C 1.328125 -2.421875 1.539062 -1.914062 1.96875 -1.5 C 2.394531 -1.082031 2.90625 -0.875 3.5 -0.875 C 4.09375 -0.875 4.597656 -1.082031 5.015625 -1.5 C 5.441406 -1.914062 5.65625 -2.421875 5.65625 -3.015625 C 5.65625 -3.617188 5.441406 -4.125 5.015625 -4.53125 C 4.597656 -4.945312 4.09375 -5.15625 3.5 -5.15625 Z M 3.5 -5.15625 "/></g></g></g><g fill="#009acb" fill-opacity="1"><g transform="translate(174.595786, 251.076487)"><g><path d="M 7.171875 0 L 6.234375 0 L 6.234375 -4.515625 L 4.328125 -0.625 L 3.65625 -0.625 L 1.75 -4.515625 L 1.75 0 L 0.796875 0 L 0.796875 -6.03125 L 2 -6.03125 L 4 -2.03125 L 5.984375 -6.03125 L 7.171875 -6.03125 Z M 7.171875 0 "/></g></g></g><g fill="#009acb" fill-opacity="1"><g transform="translate(184.732903, 251.076487)"><g><path d="M 5.109375 -5.125 L 1.8125 -5.125 L 1.8125 -3.5 L 4.765625 -3.5 L 4.765625 -2.578125 L 1.8125 -2.578125 L 1.8125 -0.921875 L 5.203125 -0.921875 L 5.203125 0 L 0.796875 0 L 0.796875 -6.03125 L 5.109375 -6.03125 Z M 5.109375 -5.125 "/></g></g></g><g fill="#009acb" fill-opacity="1"><g transform="translate(192.549262, 251.076487)"><g/></g></g><g fill="#009acb" fill-opacity="1"><g transform="translate(196.931939, 251.076487)"><g><path d="M 4.921875 -5.125 L 3 -5.125 L 3 0 L 1.984375 0 L 1.984375 -5.125 L 0.078125 -5.125 L 0.078125 -6.03125 L 4.921875 -6.03125 Z M 4.921875 -5.125 "/></g></g></g><g fill="#009acb" fill-opacity="1"><g transform="translate(204.083988, 251.076487)"><g><path d="M 1.21875 -5.1875 C 1.832031 -5.769531 2.585938 -6.0625 3.484375 -6.0625 C 4.390625 -6.0625 5.148438 -5.769531 5.765625 -5.1875 C 6.378906 -4.601562 6.6875 -3.878906 6.6875 -3.015625 C 6.6875 -2.148438 6.378906 -1.421875 5.765625 -0.828125 C 5.148438 -0.242188 4.390625 0.046875 3.484375 0.046875 C 2.585938 0.046875 1.832031 -0.242188 1.21875 -0.828125 C 0.601562 -1.421875 0.296875 -2.148438 0.296875 -3.015625 C 0.296875 -3.878906 0.601562 -4.601562 1.21875 -5.1875 Z M 3.5 -5.15625 C 2.90625 -5.15625 2.394531 -4.945312 1.96875 -4.53125 C 1.539062 -4.125 1.328125 -3.617188 1.328125 -3.015625 C 1.328125 -2.421875 1.539062 -1.914062 1.96875 -1.5 C 2.394531 -1.082031 2.90625 -0.875 3.5 -0.875 C 4.09375 -0.875 4.597656 -1.082031 5.015625 -1.5 C 5.441406 -1.914062 5.65625 -2.421875 5.65625 -3.015625 C 5.65625 -3.617188 5.441406 -4.125 5.015625 -4.53125 C 4.597656 -4.945312 4.09375 -5.15625 3.5 -5.15625 Z M 3.5 -5.15625 "/></g></g></g><g fill="#009acb" fill-opacity="1"><g transform="translate(213.228953, 251.076487)"><g/></g></g><g fill="#009acb" fill-opacity="1"><g transform="translate(217.61163, 251.076487)"><g><path d="M 3.265625 -2.015625 L 3.265625 0 L 2.265625 0 L 2.265625 -1.96875 L 0.015625 -6.03125 L 1.03125 -6.03125 L 2.765625 -3.09375 L 4.453125 -6.03125 L 5.484375 -6.03125 Z M 3.265625 -2.015625 "/></g></g></g><g fill="#009acb" fill-opacity="1"><g transform="translate(225.264072, 251.076487)"><g><path d="M 1.21875 -5.1875 C 1.832031 -5.769531 2.585938 -6.0625 3.484375 -6.0625 C 4.390625 -6.0625 5.148438 -5.769531 5.765625 -5.1875 C 6.378906 -4.601562 6.6875 -3.878906 6.6875 -3.015625 C 6.6875 -2.148438 6.378906 -1.421875 5.765625 -0.828125 C 5.148438 -0.242188 4.390625 0.046875 3.484375 0.046875 C 2.585938 0.046875 1.832031 -0.242188 1.21875 -0.828125 C 0.601562 -1.421875 0.296875 -2.148438 0.296875 -3.015625 C 0.296875 -3.878906 0.601562 -4.601562 1.21875 -5.1875 Z M 3.5 -5.15625 C 2.90625 -5.15625 2.394531 -4.945312 1.96875 -4.53125 C 1.539062 -4.125 1.328125 -3.617188 1.328125 -3.015625 C 1.328125 -2.421875 1.539062 -1.914062 1.96875 -1.5 C 2.394531 -1.082031 2.90625 -0.875 3.5 -0.875 C 4.09375 -0.875 4.597656 -1.082031 5.015625 -1.5 C 5.441406 -1.914062 5.65625 -2.421875 5.65625 -3.015625 C 5.65625 -3.617188 5.441406 -4.125 5.015625 -4.53125 C 4.597656 -4.945312 4.09375 -5.15625 3.5 -5.15625 Z M 3.5 -5.15625 "/></g></g></g><g fill="#009acb" fill-opacity="1"><g transform="translate(234.409038, 251.076487)"><g><path d="M 5.921875 -6.03125 L 5.921875 -2.5 C 5.921875 -1.707031 5.6875 -1.082031 5.21875 -0.625 C 4.757812 -0.175781 4.117188 0.046875 3.296875 0.046875 C 2.484375 0.046875 1.84375 -0.175781 1.375 -0.625 C 0.90625 -1.082031 0.671875 -1.707031 0.671875 -2.5 L 0.671875 -6.03125 L 1.6875 -6.03125 L 1.6875 -2.5 C 1.6875 -2 1.832031 -1.601562 2.125 -1.3125 C 2.414062 -1.019531 2.8125 -0.875 3.3125 -0.875 C 3.800781 -0.875 4.1875 -1.015625 4.46875 -1.296875 C 4.757812 -1.585938 4.90625 -1.988281 4.90625 -2.5 L 4.90625 -6.03125 Z M 5.921875 -6.03125 "/></g></g></g><g clip-path="url(#3ea119a148)"><path fill="#365b6d" d="M 159.644531 150.84375 L 163.699219 151.347656 C 166.230469 147.296875 165.214844 131.09375 182.941406 127.546875 C 201.171875 124.003906 215.351562 141.726562 207.753906 161.984375 C 203.199219 174.644531 200.160156 168.0625 191.550781 189.332031 C 186.992188 199.964844 184.96875 196.925781 180.410156 199.964844 L 180.410156 203.511719 C 186.484375 207.054688 193.070312 199.460938 195.09375 195.40625 C 198.132812 188.824219 199.652344 183.253906 203.703125 178.191406 C 208.261719 173.125 210.289062 172.113281 213.328125 162.492188 C 215.351562 155.402344 215.859375 146.792969 213.328125 139.703125 C 209.273438 128.5625 197.121094 118.433594 180.914062 121.472656 C 164.203125 124.507812 156.101562 142.742188 159.140625 150.335938 Z M 159.644531 150.84375 " fill-opacity="1" fill-rule="evenodd"/></g><path fill="#41c1ba" d="M 176.863281 145.777344 C 176.863281 142.742188 178.890625 140.207031 182.433594 138.183594 C 183.449219 137.675781 185.472656 137.167969 186.992188 136.664062 C 191.550781 136.15625 196.109375 139.195312 198.132812 143.246094 C 200.160156 147.804688 198.640625 155.402344 196.613281 160.464844 C 196.109375 160.972656 196.109375 161.984375 195.601562 162.492188 L 200.160156 164.515625 C 201.171875 163.503906 202.183594 158.945312 202.691406 157.425781 C 204.71875 149.324219 204.71875 140.714844 198.640625 135.144531 C 196.613281 133.117188 195.601562 132.613281 192.5625 131.597656 C 186.484375 129.574219 179.394531 131.597656 175.34375 136.664062 C 174.839844 137.675781 173.824219 138.183594 173.320312 139.703125 C 172.304688 142.234375 171.292969 144.257812 171.292969 147.296875 C 171.292969 153.375 170.789062 155.90625 174.332031 160.464844 C 174.839844 160.972656 175.34375 161.476562 175.34375 161.984375 C 175.851562 162.996094 175.851562 164.515625 175.34375 165.527344 C 174.839844 166.542969 174.332031 167.046875 173.320312 168.0625 C 171.292969 171.101562 171.292969 175.65625 174.332031 179.203125 C 174.839844 179.707031 176.359375 180.722656 177.371094 181.226562 C 182.941406 183.253906 188.511719 179.203125 188.003906 173.632812 L 182.941406 173.632812 C 182.941406 175.152344 182.433594 175.65625 181.421875 176.164062 C 180.410156 176.671875 178.890625 176.164062 178.382812 175.65625 C 177.371094 174.644531 177.371094 171.101562 178.890625 169.582031 C 178.890625 169.582031 179.394531 169.582031 179.394531 169.074219 C 180.410156 167.554688 181.421875 166.035156 181.421875 164.011719 C 181.421875 161.476562 180.914062 159.453125 179.394531 157.933594 C 178.382812 156.414062 176.863281 155.402344 176.359375 152.867188 C 176.359375 151.347656 175.851562 146.792969 176.863281 145.273438 Z M 176.863281 145.777344 " fill-opacity="1" fill-rule="evenodd"/></svg>