<svg xmlns="http://www.w3.org/2000/svg" xmlns:xlink="http://www.w3.org/1999/xlink" zoomAndPan="magnify" preserveAspectRatio="xMidYMid meet" version="1.0" viewBox="71.94 163 227.46 49"><defs><g/><clipPath id="ae40dd4531"><path d="M 72.300781 163 L 104.550781 163 L 104.550781 212 L 72.300781 212 Z M 72.300781 163 " clip-rule="nonzero"/></clipPath></defs><g fill="#ffffff" fill-opacity="1"><g transform="translate(177.295174, 203.249987)"><g><path d="M 26.109375 0 L 22.71875 0 L 22.71875 -13.703125 L 7.390625 -13.703125 L 7.390625 0 L 4 0 L 4 -29.109375 L 7.390625 -29.109375 L 7.390625 -16.734375 L 22.71875 -16.734375 L 22.71875 -29.109375 L 26.109375 -29.109375 Z M 26.109375 0 "/></g></g></g><g fill="#ffffff" fill-opacity="1"><g transform="translate(207.383291, 203.249987)"><g><path d="M 12.71875 0.390625 C 9.5 0.390625 6.957031 -0.585938 5.09375 -2.546875 C 3.226562 -4.515625 2.296875 -7.242188 2.296875 -10.734375 C 2.296875 -14.253906 3.160156 -17.046875 4.890625 -19.109375 C 6.617188 -21.179688 8.945312 -22.21875 11.875 -22.21875 C 14.601562 -22.21875 16.765625 -21.316406 18.359375 -19.515625 C 19.953125 -17.722656 20.75 -15.351562 20.75 -12.40625 L 20.75 -10.3125 L 5.71875 -10.3125 C 5.78125 -7.75 6.425781 -5.800781 7.65625 -4.46875 C 8.882812 -3.144531 10.613281 -2.484375 12.84375 -2.484375 C 15.195312 -2.484375 17.519531 -2.976562 19.8125 -3.96875 L 19.8125 -1.015625 C 18.644531 -0.515625 17.539062 -0.15625 16.5 0.0625 C 15.457031 0.28125 14.195312 0.390625 12.71875 0.390625 Z M 11.828125 -19.453125 C 10.078125 -19.453125 8.679688 -18.878906 7.640625 -17.734375 C 6.597656 -16.597656 5.984375 -15.019531 5.796875 -13 L 17.203125 -13 C 17.203125 -15.082031 16.738281 -16.675781 15.8125 -17.78125 C 14.882812 -18.894531 13.554688 -19.453125 11.828125 -19.453125 Z M 11.828125 -19.453125 "/></g></g></g><g fill="#ffffff" fill-opacity="1"><g transform="translate(230.263005, 203.249987)"><g><path d="M 16.921875 0 L 16.265625 -3.109375 L 16.109375 -3.109375 C 15.015625 -1.742188 13.925781 -0.816406 12.84375 -0.328125 C 11.769531 0.148438 10.421875 0.390625 8.796875 0.390625 C 6.640625 0.390625 4.945312 -0.164062 3.71875 -1.28125 C 2.488281 -2.394531 1.875 -3.976562 1.875 -6.03125 C 1.875 -10.4375 5.398438 -12.75 12.453125 -12.96875 L 16.15625 -13.078125 L 16.15625 -14.4375 C 16.15625 -16.144531 15.785156 -17.40625 15.046875 -18.21875 C 14.304688 -19.039062 13.128906 -19.453125 11.515625 -19.453125 C 9.691406 -19.453125 7.632812 -18.894531 5.34375 -17.78125 L 4.328125 -20.3125 C 5.398438 -20.894531 6.578125 -21.351562 7.859375 -21.6875 C 9.140625 -22.019531 10.421875 -22.1875 11.703125 -22.1875 C 14.304688 -22.1875 16.234375 -21.609375 17.484375 -20.453125 C 18.742188 -19.296875 19.375 -17.441406 19.375 -14.890625 L 19.375 0 Z M 9.453125 -2.328125 C 11.515625 -2.328125 13.128906 -2.890625 14.296875 -4.015625 C 15.472656 -5.148438 16.0625 -6.734375 16.0625 -8.765625 L 16.0625 -10.734375 L 12.765625 -10.59375 C 10.140625 -10.5 8.242188 -10.085938 7.078125 -9.359375 C 5.921875 -8.640625 5.34375 -7.519531 5.34375 -6 C 5.34375 -4.800781 5.703125 -3.890625 6.421875 -3.265625 C 7.140625 -2.640625 8.148438 -2.328125 9.453125 -2.328125 Z M 9.453125 -2.328125 "/></g></g></g><g fill="#ffffff" fill-opacity="1"><g transform="translate(252.943592, 203.249987)"><g><path d="M 6.8125 0 L 3.5 0 L 3.5 -30.984375 L 6.8125 -30.984375 Z M 6.8125 0 "/></g></g></g><g fill="#ffffff" fill-opacity="1"><g transform="translate(263.25838, 203.249987)"><g><path d="M 10.546875 -2.328125 C 11.140625 -2.328125 11.707031 -2.367188 12.25 -2.453125 C 12.789062 -2.546875 13.222656 -2.640625 13.546875 -2.734375 L 13.546875 -0.203125 C 13.179688 -0.0234375 12.648438 0.113281 11.953125 0.21875 C 11.253906 0.332031 10.628906 0.390625 10.078125 0.390625 C 5.859375 0.390625 3.75 -1.828125 3.75 -6.265625 L 3.75 -19.25 L 0.625 -19.25 L 0.625 -20.84375 L 3.75 -22.21875 L 5.140625 -26.875 L 7.046875 -26.875 L 7.046875 -21.828125 L 13.375 -21.828125 L 13.375 -19.25 L 7.046875 -19.25 L 7.046875 -6.40625 C 7.046875 -5.09375 7.359375 -4.082031 7.984375 -3.375 C 8.609375 -2.675781 9.460938 -2.328125 10.546875 -2.328125 Z M 10.546875 -2.328125 "/></g></g></g><g fill="#ffffff" fill-opacity="1"><g transform="translate(277.655275, 203.249987)"><g><path d="M 18.4375 0 L 18.4375 -14.125 C 18.4375 -15.894531 18.03125 -17.21875 17.21875 -18.09375 C 16.414062 -18.976562 15.148438 -19.421875 13.421875 -19.421875 C 11.117188 -19.421875 9.441406 -18.796875 8.390625 -17.546875 C 7.335938 -16.296875 6.8125 -14.25 6.8125 -11.40625 L 6.8125 0 L 3.5 0 L 3.5 -30.984375 L 6.8125 -30.984375 L 6.8125 -21.609375 C 6.8125 -20.472656 6.757812 -19.535156 6.65625 -18.796875 L 6.84375 -18.796875 C 7.5 -19.847656 8.425781 -20.675781 9.625 -21.28125 C 10.832031 -21.882812 12.203125 -22.1875 13.734375 -22.1875 C 16.410156 -22.1875 18.414062 -21.550781 19.75 -20.28125 C 21.082031 -19.007812 21.75 -16.992188 21.75 -14.234375 L 21.75 0 Z M 18.4375 0 "/></g></g></g><g fill="#ffffff" fill-opacity="1"><g transform="translate(111.295178, 203.249987)"><g><path d="M 20.4375 0 L 3.65625 0 L 3.65625 -29.109375 L 20.4375 -29.109375 L 20.4375 -24.046875 L 9.84375 -24.046875 L 9.84375 -17.65625 L 19.6875 -17.65625 L 19.6875 -12.609375 L 9.84375 -12.609375 L 9.84375 -5.09375 L 20.4375 -5.09375 Z M 20.4375 0 "/></g></g></g><g fill="#ffffff" fill-opacity="1"><g transform="translate(134.135066, 203.249987)"><g><path d="M 12.3125 -22.71875 C 15.289062 -22.71875 17.578125 -22.066406 19.171875 -20.765625 C 20.765625 -19.460938 21.5625 -17.484375 21.5625 -14.828125 L 21.5625 0 L 17.328125 0 L 16.15625 -3.03125 L 15.984375 -3.03125 C 15.347656 -2.226562 14.695312 -1.570312 14.03125 -1.0625 C 13.375 -0.5625 12.613281 -0.195312 11.75 0.03125 C 10.882812 0.269531 9.835938 0.390625 8.609375 0.390625 C 7.285156 0.390625 6.101562 0.140625 5.0625 -0.359375 C 4.019531 -0.859375 3.203125 -1.628906 2.609375 -2.671875 C 2.015625 -3.710938 1.71875 -5.039062 1.71875 -6.65625 C 1.71875 -9.019531 2.546875 -10.757812 4.203125 -11.875 C 5.859375 -13 8.347656 -13.617188 11.671875 -13.734375 L 15.53125 -13.859375 L 15.53125 -14.828125 C 15.53125 -16.003906 15.222656 -16.863281 14.609375 -17.40625 C 14.003906 -17.945312 13.15625 -18.21875 12.0625 -18.21875 C 10.988281 -18.21875 9.929688 -18.0625 8.890625 -17.75 C 7.859375 -17.445312 6.828125 -17.066406 5.796875 -16.609375 L 3.78125 -20.703125 C 4.96875 -21.328125 6.289062 -21.816406 7.75 -22.171875 C 9.21875 -22.535156 10.738281 -22.71875 12.3125 -22.71875 Z M 15.53125 -10.3125 L 13.1875 -10.234375 C 11.21875 -10.179688 9.847656 -9.828125 9.078125 -9.171875 C 8.316406 -8.523438 7.9375 -7.671875 7.9375 -6.609375 C 7.9375 -5.679688 8.207031 -5.019531 8.75 -4.625 C 9.300781 -4.238281 10.015625 -4.046875 10.890625 -4.046875 C 12.191406 -4.046875 13.289062 -4.429688 14.1875 -5.203125 C 15.082031 -5.972656 15.53125 -7.066406 15.53125 -8.484375 Z M 15.53125 -10.3125 "/></g></g></g><g fill="#ffffff" fill-opacity="1"><g transform="translate(158.767098, 203.249987)"><g><path d="M 15.609375 -22.6875 C 15.910156 -22.6875 16.265625 -22.664062 16.671875 -22.625 C 17.078125 -22.59375 17.40625 -22.550781 17.65625 -22.5 L 17.203125 -16.8125 C 17.003906 -16.875 16.722656 -16.921875 16.359375 -16.953125 C 15.992188 -16.984375 15.675781 -17 15.40625 -17 C 14.625 -17 13.863281 -16.898438 13.125 -16.703125 C 12.394531 -16.503906 11.738281 -16.179688 11.15625 -15.734375 C 10.570312 -15.296875 10.109375 -14.710938 9.765625 -13.984375 C 9.429688 -13.265625 9.265625 -12.378906 9.265625 -11.328125 L 9.265625 0 L 3.1875 0 L 3.1875 -22.265625 L 7.78125 -22.265625 L 8.6875 -18.515625 L 8.984375 -18.515625 C 9.421875 -19.273438 9.96875 -19.96875 10.625 -20.59375 C 11.28125 -21.226562 12.03125 -21.734375 12.875 -22.109375 C 13.71875 -22.492188 14.628906 -22.6875 15.609375 -22.6875 Z M 15.609375 -22.6875 "/></g></g></g><g clip-path="url(#ae40dd4531)"><path fill="#ffffff" d="M 72.589844 180.707031 L 74.902344 180.996094 C 76.34375 178.6875 75.769531 169.445312 85.875 167.425781 C 96.273438 165.402344 104.359375 175.511719 100.027344 187.0625 C 97.425781 194.28125 95.695312 190.527344 90.785156 202.65625 C 88.1875 208.71875 87.03125 206.988281 84.429688 208.71875 L 84.429688 210.742188 C 87.898438 212.761719 91.652344 208.433594 92.804688 206.121094 C 94.539062 202.367188 95.40625 199.191406 97.714844 196.304688 C 100.316406 193.414062 101.46875 192.835938 103.203125 187.351562 C 104.359375 183.308594 104.644531 178.398438 103.203125 174.355469 C 100.890625 168.003906 93.960938 162.226562 84.71875 163.960938 C 75.191406 165.691406 70.570312 176.089844 72.300781 180.417969 Z M 72.589844 180.707031 " fill-opacity="1" fill-rule="evenodd"/></g><path fill="#ffffff" d="M 82.410156 177.820312 C 82.410156 176.089844 83.566406 174.644531 85.585938 173.488281 C 86.164062 173.199219 87.320312 172.910156 88.1875 172.621094 C 90.785156 172.332031 93.382812 174.066406 94.539062 176.375 C 95.695312 178.976562 94.828125 183.308594 93.671875 186.195312 C 93.382812 186.484375 93.382812 187.0625 93.09375 187.351562 L 95.695312 188.503906 C 96.273438 187.929688 96.847656 185.328125 97.136719 184.460938 C 98.292969 179.84375 98.292969 174.933594 94.828125 171.757812 C 93.671875 170.601562 93.09375 170.3125 91.363281 169.734375 C 87.898438 168.578125 83.855469 169.734375 81.542969 172.621094 C 81.253906 173.199219 80.675781 173.488281 80.386719 174.355469 C 79.8125 175.800781 79.234375 176.953125 79.234375 178.6875 C 79.234375 182.152344 78.945312 183.597656 80.964844 186.195312 C 81.253906 186.484375 81.542969 186.773438 81.542969 187.0625 C 81.832031 187.640625 81.832031 188.503906 81.542969 189.082031 C 81.253906 189.660156 80.964844 189.949219 80.386719 190.527344 C 79.234375 192.261719 79.234375 194.859375 80.964844 196.878906 C 81.253906 197.167969 82.121094 197.746094 82.699219 198.035156 C 85.875 199.191406 89.050781 196.878906 88.761719 193.703125 L 85.875 193.703125 C 85.875 194.570312 85.585938 194.859375 85.007812 195.148438 C 84.429688 195.4375 83.566406 195.148438 83.277344 194.859375 C 82.699219 194.28125 82.699219 192.261719 83.566406 191.394531 C 83.566406 191.394531 83.855469 191.394531 83.855469 191.105469 C 84.429688 190.238281 85.007812 189.371094 85.007812 188.21875 C 85.007812 186.773438 84.71875 185.617188 83.855469 184.75 C 83.277344 183.886719 82.410156 183.308594 82.121094 181.863281 C 82.121094 180.996094 81.832031 178.398438 82.410156 177.53125 Z M 82.410156 177.820312 " fill-opacity="1" fill-rule="evenodd"/></svg>